<svg xmlns="http://www.w3.org/2000/svg" xmlns:xlink="http://www.w3.org/1999/xlink" width="500" zoomAndPan="magnify" viewBox="0 0 375 374.999991" height="500" preserveAspectRatio="xMidYMid meet" version="1.0"><defs><g/><clipPath id="585fbe4479"><path d="M 72 204 L 106 204 L 106 214.480469 L 72 214.480469 Z M 72 204 " clip-rule="nonzero"/></clipPath><clipPath id="3e91bcb737"><path d="M 57.25 143 L 97 143 L 97 187 L 57.25 187 Z M 57.25 143 " clip-rule="nonzero"/></clipPath><clipPath id="f2aafaccdb"><path d="M 95 143 L 121 143 L 121 165 L 95 165 Z M 95 143 " clip-rule="nonzero"/></clipPath><clipPath id="cbf3c3c25b"><path d="M 109 107 L 117 107 L 117 114 L 109 114 Z M 109 107 " clip-rule="nonzero"/></clipPath><clipPath id="d5d70e4335"><path d="M 114.96875 127.667969 L 98.507812 120.386719 L 109.128906 96.382812 L 125.589844 103.664062 Z M 114.96875 127.667969 " clip-rule="nonzero"/></clipPath><clipPath id="04270aad76"><path d="M 114.96875 127.667969 L 98.507812 120.386719 L 109.128906 96.382812 L 125.589844 103.664062 Z M 114.96875 127.667969 " clip-rule="nonzero"/></clipPath><clipPath id="ab8d4a29d7"><path d="M 104 99 L 123 99 L 123 125 L 104 125 Z M 104 99 " clip-rule="nonzero"/></clipPath><clipPath id="ef0e006903"><path d="M 114.96875 127.667969 L 98.507812 120.386719 L 109.128906 96.382812 L 125.589844 103.664062 Z M 114.96875 127.667969 " clip-rule="nonzero"/></clipPath><clipPath id="e7b9f34147"><path d="M 114.96875 127.667969 L 98.507812 120.386719 L 109.128906 96.382812 L 125.589844 103.664062 Z M 114.96875 127.667969 " clip-rule="nonzero"/></clipPath></defs><path fill="#2b7232" d="M 84.875 185.40625 C 85.011719 185.472656 85.148438 185.539062 85.285156 185.601562 L 85.285156 179.621094 C 84.589844 179.984375 82.652344 181.113281 81.910156 182.789062 C 82.296875 183.726562 83.289062 184.605469 84.875 185.40625 " fill-opacity="1" fill-rule="nonzero"/><path fill="#2b7232" d="M 95.8125 137.167969 C 95.621094 137.230469 95.421875 137.261719 95.21875 137.261719 C 94.851562 137.261719 94.507812 137.160156 94.210938 136.980469 C 94.699219 138.113281 95.894531 139.480469 98.179688 139.667969 C 100.859375 139.890625 102.820312 138.828125 102.820312 138.828125 C 100.953125 139.558594 98.816406 139.367188 98.816406 139.367188 C 100.554688 139.273438 102.488281 138.039062 102.488281 138.039062 C 97.339844 140.542969 96.105469 138.414062 95.8125 137.167969 " fill-opacity="1" fill-rule="nonzero"/><path fill="#2b7232" d="M 101.015625 206.359375 C 97.511719 203.996094 91.738281 202.371094 89.023438 200.882812 C 84.640625 198.46875 84.839844 194.507812 84.972656 193.484375 C 84.972656 193.484375 84.96875 193.484375 84.96875 193.484375 C 84.902344 193.472656 80.613281 192.71875 77.5 190.15625 C 73.808594 203.296875 85.015625 204.652344 89.023438 204.902344 C 93.046875 205.15625 96.882812 206.5 96.882812 206.5 C 98.003906 206.878906 98.933594 207.273438 99.703125 207.667969 C 104.867188 210.332031 102.804688 213.175781 102.714844 213.296875 C 105.027344 210.378906 103.675781 208.152344 101.015625 206.359375 " fill-opacity="1" fill-rule="nonzero"/><path fill="#2b7232" d="M 85.011719 193.234375 C 86.527344 193.503906 101.695312 195.9375 102.964844 187.070312 C 104.230469 178.199219 93.269531 177.914062 93.269531 177.914062 L 93.078125 177.898438 L 93.078125 183.613281 C 93.226562 183.574219 93.429688 183.546875 93.699219 183.566406 C 98.285156 183.996094 91.605469 189.097656 84.757812 185.632812 C 77.730469 182.074219 83.921875 177.945312 85.285156 177.242188 L 85.285156 174.335938 C 85.285156 172.664062 84.695312 171.097656 83.683594 169.859375 C 82.195312 170.761719 80.621094 171.703125 79.207031 172.941406 L 79.207031 172.9375 C 76.570312 174.632812 74.144531 178.359375 74.199219 182.125 C 74.214844 183.3125 74.414062 184.449219 74.761719 185.5 C 76.160156 191.75 85.011719 193.234375 85.011719 193.234375 " fill-opacity="1" fill-rule="nonzero"/><path fill="#2b7232" d="M 88.097656 149.136719 C 88.097656 149.136719 103.066406 161.007812 92.828125 167.574219 L 92.828125 175.09375 C 92.828125 175.09375 105.730469 171.070312 104.738281 157.796875 C 104.042969 148.480469 92.382812 143.792969 83.300781 130.042969 C 74.058594 116.054688 97.472656 100.476562 94.683594 123.371094 C 94.683594 123.371094 94.773438 124.785156 93.628906 125.78125 C 92.878906 126.433594 92.449219 127.382812 92.476562 128.375 C 92.527344 130.3125 92.753906 133.351562 93.601562 135.859375 C 93.972656 136.964844 95.339844 137.363281 96.257812 136.652344 C 97.921875 135.367188 100.28125 132.972656 101.179688 129.277344 C 101.269531 128.917969 101.1875 128.539062 100.972656 128.234375 C 100.625 127.734375 100.160156 126.800781 100.367188 125.566406 C 100.367188 125.566406 102.121094 112.050781 91.898438 107.148438 C 91.898438 107.148438 81.84375 104.53125 76.523438 119.316406 C 71.199219 134.097656 88.097656 149.136719 88.097656 149.136719 " fill-opacity="1" fill-rule="nonzero"/><path fill="#76bd90" d="M 85.539062 193.578125 L 85.539062 196.582031 C 86.007812 197.953125 87.019531 199.488281 89.148438 200.660156 C 90.074219 201.167969 91.394531 201.707031 92.828125 202.269531 L 92.828125 193.941406 C 92.214844 193.976562 91.609375 193.996094 91.019531 193.996094 C 88.632812 193.996094 86.550781 193.730469 85.539062 193.578125 " fill-opacity="1" fill-rule="nonzero"/><g clip-path="url(#585fbe4479)"><path fill="#76bd90" d="M 105.535156 213.816406 L 99.113281 212.054688 L 97.007812 211.476562 C 94.539062 210.796875 92.828125 208.554688 92.828125 205.992188 L 92.828125 205.6875 C 91.664062 205.449219 90.34375 205.242188 89.007812 205.15625 C 87.761719 205.078125 86.605469 204.929688 85.539062 204.710938 L 85.539062 205.992188 C 85.539062 208.554688 83.828125 210.796875 81.359375 211.476562 L 79.25 212.054688 L 72.828125 213.816406 C 72.277344 213.964844 72.386719 214.777344 72.960938 214.777344 L 105.40625 214.777344 C 105.980469 214.777344 106.089844 213.964844 105.535156 213.816406 " fill-opacity="1" fill-rule="nonzero"/></g><g clip-path="url(#3e91bcb737)"><path fill="#76bd90" d="M 85.539062 174.335938 L 85.539062 185.714844 C 86.878906 186.285156 88.277344 186.578125 89.707031 186.578125 C 90.929688 186.578125 91.984375 186.367188 92.828125 186.066406 L 92.828125 167.574219 C 103.066406 161.007812 88.097656 149.136719 88.097656 149.136719 C 88.097656 149.136719 85.484375 146.8125 82.640625 143.097656 L 57.28125 143.097656 L 60.035156 148.746094 C 64.535156 157.984375 71.890625 164.566406 80.347656 167.292969 C 83.425781 168.285156 85.539062 171.105469 85.539062 174.335938 " fill-opacity="1" fill-rule="nonzero"/></g><g clip-path="url(#f2aafaccdb)"><path fill="#76bd90" d="M 95.328125 143.097656 C 95.472656 143.238281 95.621094 143.378906 95.765625 143.519531 C 100.832031 148.410156 104.832031 152.273438 105.246094 157.757812 C 105.429688 160.242188 105.132812 162.410156 104.542969 164.28125 C 110.210938 160.835938 115.039062 155.507812 118.332031 148.746094 L 121.085938 143.097656 L 95.328125 143.097656 " fill-opacity="1" fill-rule="nonzero"/></g><path fill="#76bd90" d="M 106.445312 140.457031 C 106.445312 141.101562 105.921875 141.625 105.277344 141.625 C 104.632812 141.625 104.109375 141.101562 104.109375 140.457031 C 104.109375 139.8125 104.632812 139.289062 105.277344 139.289062 C 105.921875 139.289062 106.445312 139.8125 106.445312 140.457031 Z M 104.804688 138.914062 C 103.847656 138.914062 103.074219 139.691406 103.074219 140.644531 C 103.074219 141.605469 103.847656 142.378906 104.804688 142.378906 C 105.761719 142.378906 106.539062 141.605469 106.539062 140.644531 C 106.539062 139.691406 105.761719 138.914062 104.804688 138.914062 " fill-opacity="1" fill-rule="nonzero"/><path fill="#76bd90" d="M 113.699219 141.273438 C 113.242188 141.726562 112.503906 141.726562 112.046875 141.273438 C 111.589844 140.816406 111.589844 140.078125 112.046875 139.621094 C 112.503906 139.164062 113.242188 139.164062 113.699219 139.621094 C 114.15625 140.078125 114.15625 140.816406 113.699219 141.273438 Z M 114.566406 139.421875 C 113.886719 138.746094 112.789062 138.746094 112.113281 139.421875 C 111.4375 140.097656 111.4375 141.195312 112.113281 141.871094 C 112.789062 142.546875 113.886719 142.546875 114.566406 141.871094 C 115.242188 141.195312 115.242188 140.097656 114.566406 139.421875 " fill-opacity="1" fill-rule="nonzero"/><path fill="#76bd90" d="M 110.265625 136.347656 C 110.101562 136.972656 109.460938 137.34375 108.839844 137.179688 C 108.214844 137.015625 107.839844 136.378906 108.007812 135.753906 C 108.167969 135.132812 108.808594 134.757812 109.433594 134.921875 C 110.054688 135.085938 110.425781 135.726562 110.265625 136.347656 Z M 109.511719 133.871094 C 108.585938 133.628906 107.640625 134.183594 107.398438 135.105469 C 107.152344 136.035156 107.707031 136.980469 108.632812 137.222656 C 109.558594 137.46875 110.503906 136.914062 110.75 135.988281 C 110.992188 135.0625 110.4375 134.113281 109.511719 133.871094 " fill-opacity="1" fill-rule="nonzero"/><g clip-path="url(#cbf3c3c25b)"><g clip-path="url(#d5d70e4335)"><g clip-path="url(#04270aad76)"><path fill="#76bd90" d="M 109.367188 110.324219 L 111.113281 111.09375 C 111.179688 111.125 111.210938 111.203125 111.179688 111.269531 L 110.410156 113.015625 C 110.378906 113.082031 110.410156 113.160156 110.476562 113.191406 L 112.261719 113.980469 C 112.328125 114.007812 112.40625 113.980469 112.4375 113.910156 L 113.210938 112.167969 C 113.238281 112.101562 113.316406 112.070312 113.382812 112.101562 L 115.128906 112.871094 C 115.195312 112.902344 115.273438 112.871094 115.304688 112.804688 L 116.09375 111.019531 C 116.125 110.953125 116.09375 110.875 116.027344 110.84375 L 114.28125 110.070312 C 114.214844 110.042969 114.183594 109.964844 114.214844 109.894531 L 114.984375 108.152344 C 115.015625 108.085938 114.984375 108.007812 114.917969 107.976562 L 113.132812 107.1875 C 113.066406 107.15625 112.988281 107.1875 112.957031 107.253906 L 112.1875 109 C 112.15625 109.066406 112.078125 109.097656 112.011719 109.066406 L 110.265625 108.296875 C 110.199219 108.265625 110.121094 108.296875 110.089844 108.363281 L 109.300781 110.148438 C 109.269531 110.214844 109.300781 110.292969 109.367188 110.324219 " fill-opacity="1" fill-rule="nonzero"/></g></g></g><g clip-path="url(#ab8d4a29d7)"><g clip-path="url(#ef0e006903)"><g clip-path="url(#e7b9f34147)"><path fill="#2b7232" d="M 115.148438 105.046875 C 117.851562 106.242188 119.074219 109.40625 117.878906 112.109375 C 116.074219 116.183594 108.871094 119.234375 108.871094 119.234375 C 108.871094 119.234375 106.28125 111.851562 108.085938 107.777344 C 109.28125 105.074219 112.441406 103.851562 115.148438 105.046875 Z M 106.746094 124.03125 C 106.746094 124.03125 118.515625 119.609375 121.84375 112.085938 C 123.851562 107.554688 121.800781 102.253906 117.269531 100.25 C 112.738281 98.242188 107.4375 100.292969 105.429688 104.824219 C 102.101562 112.347656 106.746094 124.03125 106.746094 124.03125 " fill-opacity="1" fill-rule="nonzero"/></g></g></g><g fill="#2b7232" fill-opacity="1"><g transform="translate(131.70842, 155.719809)"><g><path d="M 13.59375 0.484375 C 11.875 0.484375 10.269531 0.175781 8.78125 -0.4375 C 7.300781 -1.0625 6.015625 -1.898438 4.921875 -2.953125 C 3.835938 -4.015625 2.984375 -5.253906 2.359375 -6.671875 C 1.742188 -8.085938 1.4375 -9.597656 1.4375 -11.203125 C 1.4375 -12.796875 1.742188 -14.300781 2.359375 -15.71875 C 2.984375 -17.144531 3.835938 -18.382812 4.921875 -19.4375 C 6.015625 -20.5 7.300781 -21.335938 8.78125 -21.953125 C 10.269531 -22.566406 11.875 -22.875 13.59375 -22.875 C 15.15625 -22.875 16.523438 -22.640625 17.703125 -22.171875 C 18.890625 -21.703125 19.878906 -21.191406 20.671875 -20.640625 C 21.585938 -19.972656 22.378906 -19.226562 23.046875 -18.40625 L 19.84375 -15.203125 C 19.375 -15.796875 18.828125 -16.328125 18.203125 -16.796875 C 17.671875 -17.203125 17.019531 -17.570312 16.25 -17.90625 C 15.488281 -18.238281 14.601562 -18.40625 13.59375 -18.40625 C 12.59375 -18.40625 11.65625 -18.21875 10.78125 -17.84375 C 9.90625 -17.46875 9.140625 -16.953125 8.484375 -16.296875 C 7.835938 -15.648438 7.328125 -14.890625 6.953125 -14.015625 C 6.585938 -13.140625 6.40625 -12.203125 6.40625 -11.203125 C 6.40625 -10.203125 6.585938 -9.265625 6.953125 -8.390625 C 7.328125 -7.515625 7.835938 -6.75 8.484375 -6.09375 C 9.140625 -5.445312 9.90625 -4.9375 10.78125 -4.5625 C 11.65625 -4.1875 12.59375 -4 13.59375 -4 C 14.644531 -4 15.5625 -4.160156 16.34375 -4.484375 C 17.132812 -4.816406 17.8125 -5.1875 18.375 -5.59375 C 19.007812 -6.0625 19.550781 -6.597656 20 -7.203125 L 23.203125 -4 C 22.535156 -3.164062 21.734375 -2.421875 20.796875 -1.765625 C 19.984375 -1.203125 18.976562 -0.6875 17.78125 -0.21875 C 16.59375 0.25 15.195312 0.484375 13.59375 0.484375 Z M 13.59375 0.484375 "/></g></g></g><g fill="#2b7232" fill-opacity="1"><g transform="translate(154.902558, 155.719809)"><g><path d="M 13.59375 0.484375 C 11.875 0.484375 10.269531 0.175781 8.78125 -0.4375 C 7.300781 -1.0625 6.015625 -1.898438 4.921875 -2.953125 C 3.835938 -4.015625 2.984375 -5.253906 2.359375 -6.671875 C 1.742188 -8.085938 1.4375 -9.597656 1.4375 -11.203125 C 1.4375 -12.796875 1.742188 -14.300781 2.359375 -15.71875 C 2.984375 -17.144531 3.835938 -18.382812 4.921875 -19.4375 C 6.015625 -20.5 7.300781 -21.335938 8.78125 -21.953125 C 10.269531 -22.566406 11.875 -22.875 13.59375 -22.875 C 15.320312 -22.875 16.925781 -22.566406 18.40625 -21.953125 C 19.894531 -21.335938 21.179688 -20.5 22.265625 -19.4375 C 23.359375 -18.382812 24.210938 -17.144531 24.828125 -15.71875 C 25.453125 -14.300781 25.765625 -12.796875 25.765625 -11.203125 C 25.765625 -9.597656 25.453125 -8.085938 24.828125 -6.671875 C 24.210938 -5.253906 23.359375 -4.015625 22.265625 -2.953125 C 21.179688 -1.898438 19.894531 -1.0625 18.40625 -0.4375 C 16.925781 0.175781 15.320312 0.484375 13.59375 0.484375 Z M 13.59375 -4 C 14.601562 -4 15.546875 -4.1875 16.421875 -4.5625 C 17.296875 -4.9375 18.054688 -5.445312 18.703125 -6.09375 C 19.359375 -6.75 19.867188 -7.515625 20.234375 -8.390625 C 20.609375 -9.265625 20.796875 -10.203125 20.796875 -11.203125 C 20.796875 -12.203125 20.609375 -13.140625 20.234375 -14.015625 C 19.867188 -14.890625 19.359375 -15.648438 18.703125 -16.296875 C 18.054688 -16.953125 17.296875 -17.46875 16.421875 -17.84375 C 15.546875 -18.21875 14.601562 -18.40625 13.59375 -18.40625 C 12.59375 -18.40625 11.65625 -18.21875 10.78125 -17.84375 C 9.90625 -17.46875 9.140625 -16.953125 8.484375 -16.296875 C 7.835938 -15.648438 7.328125 -14.890625 6.953125 -14.015625 C 6.585938 -13.140625 6.40625 -12.203125 6.40625 -11.203125 C 6.40625 -10.203125 6.585938 -9.265625 6.953125 -8.390625 C 7.328125 -7.515625 7.835938 -6.75 8.484375 -6.09375 C 9.140625 -5.445312 9.90625 -4.9375 10.78125 -4.5625 C 11.65625 -4.1875 12.59375 -4 13.59375 -4 Z M 13.59375 -4 "/></g></g></g><g fill="#2b7232" fill-opacity="1"><g transform="translate(181.455871, 155.719809)"><g><path d="M 1.59375 -11.515625 L 12.3125 -11.515625 L 12.3125 -7.515625 L 1.59375 -7.515625 Z M 1.59375 -11.515625 "/></g></g></g><g fill="#2b7232" fill-opacity="1"><g transform="translate(194.732447, 155.719809)"><g><path d="M 0.953125 0 C 0.953125 -1.75 1.21875 -3.234375 1.75 -4.453125 C 2.289062 -5.679688 2.960938 -6.734375 3.765625 -7.609375 C 4.578125 -8.484375 5.453125 -9.226562 6.390625 -9.84375 C 7.335938 -10.46875 8.210938 -11.0625 9.015625 -11.625 C 9.828125 -12.195312 10.5 -12.78125 11.03125 -13.375 C 11.570312 -13.96875 11.84375 -14.679688 11.84375 -15.515625 C 11.84375 -16.328125 11.546875 -17.007812 10.953125 -17.5625 C 10.367188 -18.125 9.597656 -18.40625 8.640625 -18.40625 C 7.953125 -18.40625 7.363281 -18.257812 6.875 -17.96875 C 6.382812 -17.675781 5.992188 -17.363281 5.703125 -17.03125 C 5.335938 -16.644531 5.035156 -16.195312 4.796875 -15.6875 L 0.953125 -17.59375 C 1.359375 -18.582031 1.914062 -19.457031 2.625 -20.21875 C 2.925781 -20.539062 3.273438 -20.859375 3.671875 -21.171875 C 4.078125 -21.492188 4.539062 -21.785156 5.0625 -22.046875 C 5.59375 -22.304688 6.175781 -22.507812 6.8125 -22.65625 C 7.457031 -22.800781 8.171875 -22.875 8.953125 -22.875 C 10.148438 -22.875 11.234375 -22.691406 12.203125 -22.328125 C 13.171875 -21.972656 14 -21.476562 14.6875 -20.84375 C 15.375 -20.21875 15.894531 -19.476562 16.25 -18.625 C 16.613281 -17.769531 16.796875 -16.84375 16.796875 -15.84375 C 16.796875 -14.769531 16.617188 -13.835938 16.265625 -13.046875 C 15.921875 -12.265625 15.457031 -11.5625 14.875 -10.9375 C 14.300781 -10.320312 13.660156 -9.765625 12.953125 -9.265625 C 12.253906 -8.765625 11.546875 -8.269531 10.828125 -7.78125 C 10.117188 -7.289062 9.441406 -6.78125 8.796875 -6.25 C 8.160156 -5.726562 7.628906 -5.140625 7.203125 -4.484375 L 16.796875 -4.484375 L 16.796875 0 Z M 0.953125 0 "/></g></g></g><g fill="#2b7232" fill-opacity="1"><g transform="translate(212.48792, 155.719809)"><g><path d="M 9.59375 0.484375 C 8.1875 0.484375 6.953125 0.300781 5.890625 -0.0625 C 4.835938 -0.425781 3.960938 -0.832031 3.265625 -1.28125 C 2.429688 -1.789062 1.71875 -2.378906 1.125 -3.046875 L 4.3125 -6.234375 C 4.695312 -5.785156 5.132812 -5.382812 5.625 -5.03125 C 6.050781 -4.726562 6.554688 -4.453125 7.140625 -4.203125 C 7.734375 -3.960938 8.394531 -3.84375 9.125 -3.84375 C 10.40625 -3.84375 11.390625 -4.160156 12.078125 -4.796875 C 12.773438 -5.441406 13.125 -6.242188 13.125 -7.203125 C 13.125 -8.160156 12.785156 -8.957031 12.109375 -9.59375 C 11.441406 -10.238281 10.5 -10.5625 9.28125 -10.5625 C 8.664062 -10.5625 8.125 -10.46875 7.65625 -10.28125 C 7.195312 -10.101562 6.820312 -9.894531 6.53125 -9.65625 C 6.164062 -9.40625 5.851562 -9.117188 5.59375 -8.796875 L 2.234375 -9.28125 L 3.046875 -22.40625 L 16.640625 -22.40625 L 16.640625 -17.921875 L 7.203125 -17.921875 L 7.046875 -13.921875 C 7.273438 -14.066406 7.5625 -14.191406 7.90625 -14.296875 C 8.175781 -14.410156 8.507812 -14.507812 8.90625 -14.59375 C 9.300781 -14.675781 9.742188 -14.71875 10.234375 -14.71875 C 11.390625 -14.71875 12.453125 -14.53125 13.421875 -14.15625 C 14.390625 -13.78125 15.210938 -13.253906 15.890625 -12.578125 C 16.578125 -11.910156 17.113281 -11.117188 17.5 -10.203125 C 17.882812 -9.285156 18.078125 -8.285156 18.078125 -7.203125 C 18.078125 -6.109375 17.875 -5.097656 17.46875 -4.171875 C 17.0625 -3.242188 16.488281 -2.429688 15.75 -1.734375 C 15.019531 -1.046875 14.128906 -0.503906 13.078125 -0.109375 C 12.035156 0.285156 10.875 0.484375 9.59375 0.484375 Z M 9.59375 0.484375 "/></g></g></g><g fill="#2b7232" fill-opacity="1"><g transform="translate(131.70842, 184.219807)"><g><path d="M 2.875 -22.40625 L 12.3125 -22.40625 C 13.507812 -22.40625 14.597656 -22.21875 15.578125 -21.84375 C 16.566406 -21.46875 17.410156 -20.941406 18.109375 -20.265625 C 18.816406 -19.597656 19.359375 -18.804688 19.734375 -17.890625 C 20.117188 -16.972656 20.3125 -15.96875 20.3125 -14.875 C 20.3125 -13.789062 20.117188 -12.789062 19.734375 -11.875 C 19.359375 -10.957031 18.816406 -10.160156 18.109375 -9.484375 C 17.410156 -8.816406 16.566406 -8.296875 15.578125 -7.921875 C 14.597656 -7.546875 13.507812 -7.359375 12.3125 -7.359375 L 7.6875 -7.359375 L 7.6875 0 L 2.875 0 Z M 12.15625 -11.84375 C 13.113281 -11.84375 13.882812 -12.125 14.46875 -12.6875 C 15.0625 -13.25 15.359375 -13.976562 15.359375 -14.875 C 15.359375 -15.769531 15.0625 -16.5 14.46875 -17.0625 C 13.882812 -17.632812 13.113281 -17.921875 12.15625 -17.921875 L 7.6875 -17.921875 L 7.6875 -11.84375 Z M 12.15625 -11.84375 "/></g></g></g><g fill="#2b7232" fill-opacity="1"><g transform="translate(152.823075, 184.219807)"><g><path d="M 2.234375 -22.40625 L 6.5625 -22.40625 L 6.5625 -13.4375 L 6.71875 -13.4375 C 7.0625 -13.90625 7.457031 -14.332031 7.90625 -14.71875 C 8.289062 -15.039062 8.769531 -15.332031 9.34375 -15.59375 C 9.914062 -15.863281 10.585938 -16 11.359375 -16 C 12.148438 -16 12.894531 -15.84375 13.59375 -15.53125 C 14.300781 -15.226562 14.914062 -14.789062 15.4375 -14.21875 C 15.957031 -13.65625 16.367188 -12.96875 16.671875 -12.15625 C 16.972656 -11.34375 17.125 -10.4375 17.125 -9.4375 L 17.125 0 L 12.796875 0 L 12.796875 -8.796875 C 12.796875 -9.753906 12.539062 -10.5 12.03125 -11.03125 C 11.519531 -11.570312 10.816406 -11.84375 9.921875 -11.84375 C 8.960938 -11.84375 8.160156 -11.515625 7.515625 -10.859375 C 6.878906 -10.210938 6.5625 -9.363281 6.5625 -8.3125 L 6.5625 0 L 2.234375 0 Z M 2.234375 -22.40625 "/></g></g></g><g fill="#2b7232" fill-opacity="1"><g transform="translate(171.378352, 184.219807)"><g><path d="M 6.078125 0.3125 C 5.347656 0.3125 4.691406 0.203125 4.109375 -0.015625 C 3.523438 -0.242188 3.023438 -0.554688 2.609375 -0.953125 C 2.191406 -1.359375 1.863281 -1.832031 1.625 -2.375 C 1.394531 -2.925781 1.28125 -3.519531 1.28125 -4.15625 C 1.28125 -5.4375 1.691406 -6.53125 2.515625 -7.4375 C 3.335938 -8.34375 4.472656 -8.925781 5.921875 -9.1875 L 10.875 -10.078125 C 10.789062 -10.628906 10.519531 -11.113281 10.0625 -11.53125 C 9.601562 -11.945312 8.96875 -12.15625 8.15625 -12.15625 C 7.601562 -12.15625 7.109375 -12.0625 6.671875 -11.875 C 6.234375 -11.695312 5.863281 -11.492188 5.5625 -11.265625 C 5.207031 -11.003906 4.898438 -10.71875 4.640625 -10.40625 L 2.078125 -12.953125 C 2.523438 -13.515625 3.070312 -14.019531 3.71875 -14.46875 C 4.269531 -14.851562 4.9375 -15.203125 5.71875 -15.515625 C 6.507812 -15.835938 7.429688 -16 8.484375 -16 C 9.484375 -16 10.394531 -15.835938 11.21875 -15.515625 C 12.039062 -15.203125 12.75 -14.757812 13.34375 -14.1875 C 13.9375 -13.625 14.394531 -12.960938 14.71875 -12.203125 C 15.039062 -11.453125 15.203125 -10.640625 15.203125 -9.765625 L 15.203125 0 L 10.875 0 L 10.875 -1.921875 L 10.71875 -1.921875 C 10.375 -1.492188 9.976562 -1.117188 9.53125 -0.796875 C 9.144531 -0.503906 8.660156 -0.242188 8.078125 -0.015625 C 7.492188 0.203125 6.828125 0.3125 6.078125 0.3125 Z M 7.515625 -3.203125 C 8.472656 -3.203125 9.269531 -3.523438 9.90625 -4.171875 C 10.550781 -4.828125 10.875 -5.675781 10.875 -6.71875 L 10.875 -7.046875 L 7.359375 -6.40625 C 6.804688 -6.289062 6.375 -6.09375 6.0625 -5.8125 C 5.75 -5.539062 5.59375 -5.203125 5.59375 -4.796875 C 5.59375 -4.304688 5.753906 -3.914062 6.078125 -3.625 C 6.398438 -3.34375 6.878906 -3.203125 7.515625 -3.203125 Z M 7.515625 -3.203125 "/></g></g></g><g fill="#2b7232" fill-opacity="1"><g transform="translate(188.014098, 184.219807)"><g><path d="M 2.078125 -15.6875 L 6.40625 -15.6875 L 6.40625 -13.4375 L 6.5625 -13.4375 C 6.90625 -13.90625 7.300781 -14.332031 7.75 -14.71875 C 8.125 -15.039062 8.597656 -15.332031 9.171875 -15.59375 C 9.753906 -15.863281 10.429688 -16 11.203125 -16 L 11.515625 -16 L 11.515625 -11.359375 C 11.410156 -11.378906 11.296875 -11.398438 11.171875 -11.421875 C 11.035156 -11.441406 10.878906 -11.460938 10.703125 -11.484375 C 10.523438 -11.503906 10.316406 -11.515625 10.078125 -11.515625 C 9.035156 -11.515625 8.160156 -11.140625 7.453125 -10.390625 C 6.753906 -9.648438 6.40625 -8.640625 6.40625 -7.359375 L 6.40625 0 L 2.078125 0 Z M 2.078125 -15.6875 "/></g></g></g><g fill="#2b7232" fill-opacity="1"><g transform="translate(199.53111, 184.219807)"><g><path d="M 2.078125 -15.6875 L 6.40625 -15.6875 L 6.40625 -13.4375 L 6.5625 -13.4375 C 6.832031 -13.90625 7.171875 -14.332031 7.578125 -14.71875 C 7.941406 -15.039062 8.390625 -15.332031 8.921875 -15.59375 C 9.460938 -15.863281 10.113281 -16 10.875 -16 C 11.707031 -16 12.421875 -15.851562 13.015625 -15.5625 C 13.617188 -15.28125 14.101562 -14.96875 14.46875 -14.625 C 14.894531 -14.238281 15.242188 -13.789062 15.515625 -13.28125 L 15.6875 -13.28125 C 16.039062 -13.789062 16.472656 -14.238281 16.984375 -14.625 C 17.410156 -14.96875 17.9375 -15.28125 18.5625 -15.5625 C 19.195312 -15.851562 19.941406 -16 20.796875 -16 C 21.566406 -16 22.28125 -15.851562 22.9375 -15.5625 C 23.601562 -15.28125 24.179688 -14.863281 24.671875 -14.3125 C 25.160156 -13.769531 25.539062 -13.113281 25.8125 -12.34375 C 26.09375 -11.582031 26.234375 -10.722656 26.234375 -9.765625 L 26.234375 0 L 21.921875 0 L 21.921875 -9.125 C 21.921875 -10.019531 21.695312 -10.695312 21.25 -11.15625 C 20.800781 -11.613281 20.171875 -11.84375 19.359375 -11.84375 C 18.460938 -11.84375 17.726562 -11.546875 17.15625 -10.953125 C 16.59375 -10.367188 16.3125 -9.597656 16.3125 -8.640625 L 16.3125 0 L 12 0 L 12 -9.125 C 12 -10.019531 11.773438 -10.695312 11.328125 -11.15625 C 10.878906 -11.613281 10.25 -11.84375 9.4375 -11.84375 C 8.539062 -11.84375 7.8125 -11.546875 7.25 -10.953125 C 6.6875 -10.367188 6.40625 -9.597656 6.40625 -8.640625 L 6.40625 0 L 2.078125 0 Z M 2.078125 -15.6875 "/></g></g></g><g fill="#2b7232" fill-opacity="1"><g transform="translate(227.204147, 184.219807)"><g><path d="M 6.078125 0.3125 C 5.347656 0.3125 4.691406 0.203125 4.109375 -0.015625 C 3.523438 -0.242188 3.023438 -0.554688 2.609375 -0.953125 C 2.191406 -1.359375 1.863281 -1.832031 1.625 -2.375 C 1.394531 -2.925781 1.28125 -3.519531 1.28125 -4.15625 C 1.28125 -5.4375 1.691406 -6.53125 2.515625 -7.4375 C 3.335938 -8.34375 4.472656 -8.925781 5.921875 -9.1875 L 10.875 -10.078125 C 10.789062 -10.628906 10.519531 -11.113281 10.0625 -11.53125 C 9.601562 -11.945312 8.96875 -12.15625 8.15625 -12.15625 C 7.601562 -12.15625 7.109375 -12.0625 6.671875 -11.875 C 6.234375 -11.695312 5.863281 -11.492188 5.5625 -11.265625 C 5.207031 -11.003906 4.898438 -10.71875 4.640625 -10.40625 L 2.078125 -12.953125 C 2.523438 -13.515625 3.070312 -14.019531 3.71875 -14.46875 C 4.269531 -14.851562 4.9375 -15.203125 5.71875 -15.515625 C 6.507812 -15.835938 7.429688 -16 8.484375 -16 C 9.484375 -16 10.394531 -15.835938 11.21875 -15.515625 C 12.039062 -15.203125 12.75 -14.757812 13.34375 -14.1875 C 13.9375 -13.625 14.394531 -12.960938 14.71875 -12.203125 C 15.039062 -11.453125 15.203125 -10.640625 15.203125 -9.765625 L 15.203125 0 L 10.875 0 L 10.875 -1.921875 L 10.71875 -1.921875 C 10.375 -1.492188 9.976562 -1.117188 9.53125 -0.796875 C 9.144531 -0.503906 8.660156 -0.242188 8.078125 -0.015625 C 7.492188 0.203125 6.828125 0.3125 6.078125 0.3125 Z M 7.515625 -3.203125 C 8.472656 -3.203125 9.269531 -3.523438 9.90625 -4.171875 C 10.550781 -4.828125 10.875 -5.675781 10.875 -6.71875 L 10.875 -7.046875 L 7.359375 -6.40625 C 6.804688 -6.289062 6.375 -6.09375 6.0625 -5.8125 C 5.75 -5.539062 5.59375 -5.203125 5.59375 -4.796875 C 5.59375 -4.304688 5.753906 -3.914062 6.078125 -3.625 C 6.398438 -3.34375 6.878906 -3.203125 7.515625 -3.203125 Z M 7.515625 -3.203125 "/></g></g></g><g fill="#2b7232" fill-opacity="1"><g transform="translate(243.83989, 184.219807)"><g><path d="M 9.4375 0.3125 C 8.289062 0.3125 7.207031 0.101562 6.1875 -0.3125 C 5.175781 -0.738281 4.289062 -1.328125 3.53125 -2.078125 C 2.78125 -2.828125 2.191406 -3.691406 1.765625 -4.671875 C 1.335938 -5.648438 1.125 -6.707031 1.125 -7.84375 C 1.125 -8.945312 1.335938 -9.992188 1.765625 -10.984375 C 2.191406 -11.984375 2.78125 -12.851562 3.53125 -13.59375 C 4.289062 -14.34375 5.175781 -14.929688 6.1875 -15.359375 C 7.207031 -15.785156 8.289062 -16 9.4375 -16 C 10.570312 -16 11.539062 -15.832031 12.34375 -15.5 C 13.15625 -15.175781 13.84375 -14.8125 14.40625 -14.40625 C 15.039062 -13.9375 15.570312 -13.398438 16 -12.796875 L 13.28125 -10.078125 C 12.976562 -10.441406 12.632812 -10.765625 12.25 -11.046875 C 11.914062 -11.273438 11.515625 -11.488281 11.046875 -11.6875 C 10.578125 -11.894531 10.039062 -12 9.4375 -12 C 8.882812 -12 8.363281 -11.890625 7.875 -11.671875 C 7.382812 -11.460938 6.957031 -11.175781 6.59375 -10.8125 C 6.226562 -10.445312 5.941406 -10.007812 5.734375 -9.5 C 5.535156 -8.988281 5.4375 -8.4375 5.4375 -7.84375 C 5.4375 -7.238281 5.535156 -6.679688 5.734375 -6.171875 C 5.941406 -5.660156 6.226562 -5.222656 6.59375 -4.859375 C 6.957031 -4.492188 7.382812 -4.207031 7.875 -4 C 8.363281 -3.789062 8.882812 -3.6875 9.4375 -3.6875 C 10.039062 -3.6875 10.578125 -3.785156 11.046875 -3.984375 C 11.515625 -4.179688 11.914062 -4.398438 12.25 -4.640625 C 12.632812 -4.921875 12.976562 -5.238281 13.28125 -5.59375 L 16 -2.875 C 15.570312 -2.28125 15.039062 -1.75 14.40625 -1.28125 C 13.84375 -0.875 13.15625 -0.503906 12.34375 -0.171875 C 11.539062 0.148438 10.570312 0.3125 9.4375 0.3125 Z M 9.4375 0.3125 "/></g></g></g><g fill="#2b7232" fill-opacity="1"><g transform="translate(259.8358, 184.219807)"><g><path d="M 4 6.71875 C 3.59375 6.71875 3.210938 6.695312 2.859375 6.65625 C 2.515625 6.613281 2.210938 6.5625 1.953125 6.5 C 1.648438 6.414062 1.375 6.328125 1.125 6.234375 L 1.125 2.234375 C 1.269531 2.304688 1.4375 2.363281 1.625 2.40625 C 1.988281 2.507812 2.40625 2.5625 2.875 2.5625 C 3.601562 2.5625 4.179688 2.378906 4.609375 2.015625 C 5.035156 1.648438 5.363281 1.191406 5.59375 0.640625 L 5.921875 -0.15625 L -0.15625 -15.6875 L 4.484375 -15.6875 L 8.15625 -5.28125 L 8.3125 -5.28125 L 11.84375 -15.6875 L 16.484375 -15.6875 L 10.078125 1.28125 C 9.421875 3.050781 8.601562 4.398438 7.625 5.328125 C 6.65625 6.253906 5.445312 6.71875 4 6.71875 Z M 4 6.71875 "/></g></g></g><g fill="#2b7232" fill-opacity="1"><g transform="translate(275.52091, 184.219807)"><g/></g></g></svg>